HIERARCHY
ROOT ui
{
	 OFFSET 0 0 0
	 CHANNELS 3 XPosition YPosition Z Position
	 EndSite
	 {
	 OFFSET 0 -1 0
	 }
}
ROOT li
{
	 OFFSET 0 0 0
	 CHANNELS 3 XPosition YPosition Z Position
	 EndSite
	 {
	 OFFSET 0 -1 0
	 }
}
ROOT ul
{
	 OFFSET 0 0 0
	 CHANNELS 3 XPosition YPosition Z Position
	 EndSite
	 {
	 OFFSET 0 -1 0
	 }
}
ROOT ll
{
	 OFFSET 0 0 0
	 CHANNELS 3 XPosition YPosition Z Position
	 EndSite
	 {
	 OFFSET 0 -1 0
	 }
}
ROOT tt
{
	 OFFSET 0 0 0
	 CHANNELS 3 XPosition YPosition Z Position
	 EndSite
	 {
	 OFFSET 0 -1 0
	 }
}
ROOT tb
{
	 OFFSET 0 0 0
	 CHANNELS 3 XPosition YPosition Z Position
	 EndSite
	 {
	 OFFSET 0 -1 0
	 }
}
ROOT td
{
	 OFFSET 0 0 0
	 CHANNELS 3 XPosition YPosition Z Position
	 EndSite
	 {
	 OFFSET 0 -1 0
	 }
}
ROOT v
{
	 OFFSET 0 0 0
	 CHANNELS 3 XPosition YPosition Z Position
	 EndSite
	 {
	 OFFSET 0 -1 0
	 }
}
ROOT bn
{
	 OFFSET 0 0 0
	 CHANNELS 3 XPosition YPosition Z Position
	 EndSite
	 {
	 OFFSET 0 -1 0
	 }
}
MOTION
Frames: 18
Frame Time: 0.002
-9.495850205421448E-4	1.984499990940094E-4	0		0.49565020751953126	-2.376072021484375	0		-1.0412196044921875	-0.03805597305297852	0		-0.7416298217773437	-2.261045654296875	0		1.5154710693359374	-0.5566475830078125	0		3.23906787109375	-0.1618171844482422	0		4.4671474609375	0.00552215576171875	0		5.59075634765625	0.09093690490722656	0		-0.2097399444580078	5.89267626953125	0		
0.01893313217163086	-0.00663325309753418	0		0.519532470703125	-2.3829296875	0		-0.9842857055664063	-0.037127639770507814	0		-0.7457274780273437	-2.2647216796875	0		1.5153995361328125	-0.5563499755859375	0		3.218880126953125	-0.17938975524902342	0		4.48598486328125	-0.0083035888671875	0		5.5866396484375	0.08425997161865234	0		-0.21179747009277344	5.8949873046875	0		
-0.004106865882873535	-0.002189117908477783	0		0.4825306396484375	-2.372395263671875	0		-1.0494091796875	-0.045410385131835936	0		-0.75876220703125	-2.259342041015625	0		1.512306884765625	-0.5600360107421875	0		3.222845947265625	-0.17412217712402345	0		4.4719189453125	-0.007919617176055908	0		5.5865732421875	0.08455255126953125	0		-0.2118612823486328	5.8952822265625	0		
0.01881313133239746	-0.006049853801727295	0		0.4914232177734375	-2.38016552734375	0		-0.9724644165039062	-0.04562070083618164	0		-0.74786962890625	-2.267124267578125	0		1.5122529296875	-0.559748779296875	0		3.2357529296875	-0.17992039489746095	0		4.485865234375	-0.007725249767303466	0		5.58652001953125	0.08483676910400391	0		-0.2109169921875	5.894564453125	0		
-0.004195252895355225	-0.001621917963027954	0		0.463406005859375	-2.37670556640625	0		-1.0494976806640626	-0.04484132766723633	0		-0.7458873291015625	-2.263857666015625	0		1.515243408203125	-0.5554910888671875	0		3.2288544921875	-0.15859994506835937	0		4.46692138671875	0.006672133922576904	0		5.58648486328125	0.08510982513427734	0		-0.21094570922851563	5.89484326171875	0		
0.025811487197875977	0.0014506690502166747	0		0.4933902282714844	-2.376633544921875	0		-0.9644661865234375	-0.0381243782043457	0		-0.792823486328125	-2.25128466796875	0		1.51825	-0.5522452392578125	0		3.24377685546875	-0.1684338836669922	0		4.4959091796875	0.006745803833007813	0		5.58647314453125	0.08537000274658203	0		-0.2119437713623047	5.89611767578125	0		
-0.0041950359344482425	-0.0011002739667892456	0		0.49137966918945314	-2.37936669921875	0		-0.9784666137695313	-0.039777748107910155	0		-0.745893310546875	-2.263333984375	0		1.5152421875	-0.5549735717773437	0		3.238841064453125	-0.16015199279785156	0		4.480921875	0.007091248035430908	0		5.5964853515625	0.08555130767822265	0		-0.2109293975830078	5.89536572265625	0		
-0.004158760070800781	-8.602709770202636E-4	0		0.4914123229980469	-2.37912744140625	0		-0.984404296875	-0.03549739074707031	0		-0.7588277587890625	-2.258008544921875	0		1.507290771484375	-0.5526840209960937	0		3.243824951171875	-0.16794921875	0		4.47186767578125	-0.006616561889648437	0		5.58652197265625	0.0858476791381836	0		-0.2118776092529297	5.8966123046875	0		
-0.008125619888305664	-0.004609705924987793	0		0.4825199890136719	-2.370845458984375	0		-0.9724039916992188	-0.04434917831420898	0		-0.7587720336914062	-2.257782958984375	0		1.5123099365234376	-0.5584940795898438	0		3.226890625	-0.16661911010742186	0		4.48192041015625	-0.007463242053985596	0		5.5865810546875	0.08606398773193359	0		-0.2118099365234375	5.89683740234375	0		
0.022974172592163087	-0.0016028150320053101	0		0.50251318359375	-2.383767333984375	0		-1.0412696533203125	-0.03569173812866211	0		-0.7737649536132812	-2.26847607421875	0		1.518435546875	-0.5513267822265625	0		3.255866943359375	-0.18260284423828124	0		4.46709912109375	0.007836822986602782	0		5.5866494140625	0.084265380859375	0		-0.2087412109375	5.8940263671875	0		
-8.975830078125E-4	0.002744853973388672	0		0.4976910095214844	-2.371543701171875	0		-0.9641760864257812	-0.03699911499023437	0		-0.741600830078125	-2.25849169921875	0		1.5185367431640624	-0.5511361694335938	0		3.247189453125	-0.14835592651367188	0		4.467201171875	0.008025177001953125	0		5.594861328125	0.10140030670166016	0		-0.19455691528320312	5.90612744140625	0		
0.023195432662963866	-0.00123533296585083	0		0.4848361511230469	-2.367283935546875	0		-0.9721018676757812	-0.04377113342285156	0		-0.7554620971679687	-2.25522509765625	0		1.51563671875	-0.5539413452148437	0		3.2271923828125	-0.1660508270263672	0		4.49631982421875	0.008011337280273437	0		5.58688330078125	0.08662678527832031	0		-0.21149398803710937	5.89741357421875	0		
-0.003665915012359619	9.951300173997879E-5	0		0.491897216796875	-2.37816943359375	0		-0.9779376831054688	-0.03857321166992188	0		-0.7473946533203125	-2.26511767578125	0		1.51274267578125	-0.5577616577148438	0		3.22732421875	-0.16588990783691407	0		4.48141943359375	0.003270263910293579	0		5.58701513671875	0.08678875732421874	0		-0.21037155151367187	5.89656640625	0		
-0.007555942058563233	-0.003730936050415039	0		0.49203607177734376	-2.378025390625	0		-1.048832763671875	-0.042969776153564454	0		-0.7472559204101562	-2.26497509765625	0		1.5128792724609375	-0.5576162109375	0		3.22342138671875	-0.17171624755859374	0		4.4775419921875	0.001445175051689148	0		5.58715087890625	0.08693929290771485	0		-0.21024311828613282	5.8967099609375	0		
-0.003398277997970581	3.7089800834655764E-4	0		0.4941925354003906	-2.374909423828125	0		-1.0487008056640625	-0.04284419250488281	0		-0.7840858764648437	-2.259608642578125	0		1.5160380859375	-0.5535045166015625	0		3.229650634765625	-0.1566204833984375	0		4.4876669921875	5.176389813423156E-4	0		5.59222412109375	0.07804728698730469	0		-0.20913090515136717	5.89583056640625	0		
-0.0032781260013580323	4.839270114898682E-4	0		0.4663341369628906	-2.372613037109375	0		-1.0445546875	-0.038760669708251955	0		-0.7429591064453125	-2.259764404296875	0		1.5191795654296876	-0.550406005859375	0		3.233660888671875	-0.17352232360839845	0		4.48183837890625	0.008683670043945312	0		5.59144775390625	0.09418502807617188	0		-0.20903030395507813	5.89594287109375	0		
-0.0031760189533233643	5.829769968986511E-4	0		0.4924141845703125	-2.377680419921875	0		-0.9714798583984375	-0.04313964462280274	0		-0.75481396484375	-2.254591064453125	0		1.5162647705078125	-0.5532804565429688	0		3.239861083984375	-0.1584476013183594	0		4.47789453125	0.0018285059928894044	0		5.58750390625	0.08733589172363282	0		-0.2099488067626953	5.89704736328125	0		
-0.0071232600212097165	-0.0033050620555877684	0		0.48355917358398437	-2.369533203125	0		-0.9714010009765625	-0.04305952835083008	0		-0.757734619140625	-2.256489990234375	0		1.51332080078125	-0.557165771484375	0		3.244888671875	-0.16637425231933595	0		4.47797216796875	0.001940353035926819	0		5.58758203125	0.08745565032958984	0		-0.17486772155761718	5.9029052734375	0		
